<svg version="1" xmlns="http://www.w3.org/2000/svg" width="682.667" height="682.667" viewBox="0 0 512.000000 512.000000"><path d="M232.5.6c-1.6.2-8 1.1-14.2 2C176.1 8.3 130.8 28.1 95.5 56 85.2 64.1 64.1 85.2 56 95.5c-22.7 28.6-40.5 64.9-49 99.7C1.5 217.5.5 227.1.5 256s1 38.5 6.5 60.8c8.5 34.8 26.3 71.1 49 99.7 8.1 10.3 29.2 31.4 39.5 39.5 28.8 22.8 64.6 40.4 99.7 49 22.2 5.5 31.8 6.5 60.8 6.5 28.9 0 38.5-1 60.8-6.5 34.8-8.5 71.1-26.3 99.7-49 10.3-8.1 31.4-29.2 39.5-39.5 22.7-28.6 40.5-64.9 49-99.7 5.5-22.3 6.5-31.9 6.5-60.8s-1-38.5-6.5-60.8c-8.5-34.8-26.3-71.1-49-99.7-8.1-10.3-29.2-31.4-39.5-39.5-34.9-27.6-77.7-46.4-122-53.6C285 .9 240-.4 232.5.6zm-30.4 149.8c17 3.6 26.3 13.2 27.6 28.4 1.3 15.8-7.8 28.8-24.6 35-13.4 5-38.1 4-57.8-2.3-4.3-1.3-8.3-2.5-8.9-2.5-2.9 0-13 23.7-17 39.7-2 8.3-2.8 14.2-3.1 25.3-1.1 30 5.7 46.1 22.5 53.8 12 5.4 33.6 3.8 49.9-3.8 11.7-5.5 16.6-9.1 27.4-20.3 5.5-5.7 10.3-9.8 11-9.5 4 1.3 5.2 13.2 2.3 22.9-1.6 5.6-6.6 14.5-10.7 19-7.3 8.1-21.3 16.7-33.7 20.8-8.6 2.7-23.7 5.1-33 5.1-8.9 0-25.5-2.4-32.5-4.6-23.7-7.7-40.4-25.8-45.1-48.9-2.2-10.9-1.4-37.8 1.5-51.7 4.6-21.1 15-45.2 26-60.3l5.9-8-3.4-4.6c-4.2-5.8-9.3-16.5-10.1-21.2-.8-5.2.3-8.6 3.1-9.3 3.4-.8 5.9.8 15.9 10.3 4.8 4.5 9.2 8.3 9.7 8.3s4.4-2.5 8.7-5.6c11.8-8.5 23.7-13.8 36.4-16.3 7-1.4 24.8-1.2 32 .3zm149.9 1.1c18.3 3 32.9 9.5 42.5 19 9.9 9.7 13.8 20 13.7 36.7 0 11.8-1.3 18-6 27.8-5 10.6-17.4 22.9-29.2 29-4.7 2.3-8.6 4.4-8.7 4.4-.1.1.8 2.9 2.2 6.1 1.3 3.3 4.2 12.7 6.3 21 5.3 19.9 7.8 26.3 11.9 30.4 2.9 2.9 3.8 3.3 6.9 2.8 4.9-.8 12.6-6.9 26.3-20.7 6.4-6.4 12.6-12.2 13.8-12.8 3.1-1.7 5 .6 5.8 7 2.4 19.7-23 48.1-50.4 56.2-7.6 2.2-20.4 2.1-25.6-.3-11.7-5.3-15.7-14.9-20-47.6-4.6-34.5-5.4-38-9.3-39-12.4-3-19.1-14.7-12.4-21.5 5-5 15.8-6.5 24.9-3.4l4.8 1.6 4.9-5.3c9-9.8 13.5-23.4 12.1-36.9-1.2-12.5-7.6-21.5-18.9-26.6-5.5-2.6-7.4-2.9-20.2-3.2-22.4-.6-31.2 1.4-54.6 12.4-10.8 5.2-14.4 6.5-17.5 6.2-5.1-.4-5.5-3.2-1.3-9.7 9.8-15.3 33.6-29.5 56.3-33.6 10-1.8 30.3-1.8 41.7 0zm-37.9 45.2c1.3 3.4.5 17.9-1.7 30.6-.8 4.8-4.5 20.3-8.1 34.5l-6.6 25.7-.6 28.5c-.8 35.9-.6 35.4-15 42.5-9.7 4.8-16.7 6.3-20.5 4.4-14.1-6.9-8.9-59.1 11.5-115.2 5.2-14.4 16.7-37.9 21.2-43.6 7.5-9.4 17.6-13.1 19.8-7.4z"/><path d="M173.5 177.4c-6.2 2-13.6 6.1-18.3 10.1-2.4 2.1-4.1 3.9-4 4.1 1.1 1.1 13.7 3.6 21.9 4.4 19.7 1.9 28.6-2.4 25.8-12.5-1.5-5.3-5.7-7.5-14.4-7.4-3.8 0-8.8.6-11 1.3z"/></svg>